# xmcd
#
# Track frame offsets:
#	225
#	14945
#	33373
#	52702
#	72534
#	92478
#	114923
#	132063
#	145571
#	165511
#	180335
#	194754
#
# Disc length: 2802 seconds
#
# Revision: 0
# Processed by: cddbd v1.4PL0 Copyright (c) Steve Scherf et al.
# Submitted via: audiograbber 1.80
#
DISCID=9b0aef0c
DTITLE=Rudi Rotta Band - Beatles in Blues
DYEAR=1900
DGENRE=
TTITLE0=Love me do
TTITLE1=I feel fine
TTITLE2=Come together
TTITLE3=Dear prudence
TTITLE4=Revolution
TTITLE5=Get back
TTITLE6=Norwegian wood
TTITLE7=I've got a feeling
TTITLE8=Don't let me down
TTITLE9=You can't do that
TTITLE10=She's a woman
TTITLE11=In my life
EXTD=
EXTT0=
EXTT1=
EXTT2=
EXTT3=
EXTT4=
EXTT5=
EXTT6=
EXTT7=
EXTT8=
EXTT9=
EXTT10=
EXTT11=
PLAYORDER=
